<svg width="192" height="192" viewBox="0 0 192 192" fill="none" xmlns="http://www.w3.org/2000/svg">
<rect width="192" height="192" rx="32" fill="black"/>
<path d="M95.25 151C90.2917 151 85.7708 150.042 81.6875 148.125C77.6042 146.208 74.3542 143.375 71.9375 139.625C69.5625 135.833 68.375 131.188 68.375 125.688V98.125H90.125V124.375C90.125 126.292 90.5 127.833 91.25 129C92.0417 130.167 93.2917 130.75 95 130.75C98.2917 130.75 99.9375 128.729 99.9375 124.688V40H122.125V122.5C122.125 128.333 120.979 133.396 118.688 137.688C116.396 141.938 113.229 145.229 109.188 147.562C105.146 149.854 100.5 151 95.25 151Z" fill="white"/>
</svg>
